<svg id="Layer_1" data-name="Layer 1" xmlns="http://www.w3.org/2000/svg" viewBox="0 0 800 800"><defs><style>.cls-1{fill:#4835fc;}</style></defs><title>Artboard 1</title><path class="cls-1" d="M634.42,602.24c-56.13,0-51.31-45-51.31-115.57V362.47L690,362l36-108-142.84-1.61V86.18L435.17,87.51l4.31,164.88-109,2.53V86.18l-143.63,34.7V252.39L99.05,254l-41,108,128.76.47v141c0,5.82,0,11.3.34,16.78,2,67.57,16.44,114.73,45.16,145.78,27.56,29.89,72.89,47.82,126.69,47.82,46.66,0,85-6,106.43-14.28l-.42-61.9A134.21,134.21,0,0,0,485,666c27.56,29.89,72.89,47.82,126.69,47.82,46.66,0,85-6,106.43-14.28l-.66-97.3Zm-252.67,0c-56.12,0-51.31-45-51.31-115.57V363l109-.53v141c0,5.82,0,11.3.34,16.78.94,31.67,4.6,58.87,11.19,82Z"/></svg>